<svg xmlns="http://www.w3.org/2000/svg" viewBox="0 0 7.96 7.95"><defs><style>.cls-1{fill-rule:evenodd;}</style></defs><g id="Layer_2" data-name="Layer 2"><g id="Layer_1-2" data-name="Layer 1"><path class="cls-1" d="M3.44,0a3.44,3.44,0,0,0,0,6.88,3.35,3.35,0,0,0,1.8-.52L6.58,7.7A.8.8,0,0,0,8,7.19a.83.83,0,0,0-.24-.61L6.37,5.24A3.44,3.44,0,0,0,3.44,0Zm0,.53A2.91,2.91,0,1,1,.53,3.44,2.91,2.91,0,0,1,3.44.53Zm0,.53a.26.26,0,0,0-.24.29.27.27,0,0,0,.26.23A2,2,0,0,1,5.3,3.44a.26.26,0,0,0,.24.29.27.27,0,0,0,.28-.24V3.44A2.44,2.44,0,0,0,3.44,1.06ZM6.05,5.67,7.33,7a.27.27,0,0,1,.1.2.34.34,0,0,1-.09.18.27.27,0,0,1-.18.08A.22.22,0,0,1,7,7.33L5.68,6.05A3.32,3.32,0,0,0,6.05,5.67Z"/></g></g></svg>