<svg xmlns:dc="http://purl.org/dc/elements/1.1/" xmlns:cc="http://creativecommons.org/ns#" xmlns:rdf="http://www.w3.org/1999/02/22-rdf-syntax-ns#" xmlns:svg="http://www.w3.org/2000/svg" xmlns="http://www.w3.org/2000/svg" xmlns:sodipodi="http://sodipodi.sourceforge.net/DTD/sodipodi-0.dtd" xmlns:inkscape="http://www.inkscape.org/namespaces/inkscape" viewBox="0 0 8.4666665 10.583333625" version="1.1" x="0px" y="0px"><g transform="translate(0,-288.53333)"><path style="color:#000000;font-style:normal;font-variant:normal;font-weight:normal;font-stretch:normal;font-size:medium;line-height:normal;font-family:sans-serif;font-variant-ligatures:normal;font-variant-position:normal;font-variant-caps:normal;font-variant-numeric:normal;font-variant-alternates:normal;font-feature-settings:normal;text-indent:0;text-align:start;text-decoration:none;text-decoration-line:none;text-decoration-style:solid;text-decoration-color:#000000;letter-spacing:normal;word-spacing:normal;text-transform:none;writing-mode:lr-tb;direction:ltr;text-orientation:mixed;dominant-baseline:auto;baseline-shift:baseline;text-anchor:start;white-space:normal;shape-padding:0;clip-rule:nonzero;display:inline;overflow:visible;visibility:visible;opacity:1;isolation:auto;mix-blend-mode:normal;color-interpolation:sRGB;color-interpolation-filters:linearRGB;solid-color:#000000;solid-opacity:1;vector-effect:none;fill:#000000;fill-opacity:1;fill-rule:evenodd;stroke:none;stroke-width:1.99999988;stroke-linecap:round;stroke-linejoin:round;stroke-miterlimit:4;stroke-dasharray:none;stroke-dashoffset:114.27863312;stroke-opacity:1;paint-order:stroke fill markers;color-rendering:auto;image-rendering:auto;shape-rendering:auto;text-rendering:auto;enable-background:accumulate" d="M 14.003906 1.0039062 C 6.8360497 1.0039062 0.99609371 6.8360705 0.99609375 14.003906 C 0.99609375 21.17178 6.8360497 27.001953 14.003906 27.001953 C 16.501036 27.001953 18.82776 26.281881 20.810547 25.056641 L 25.875 30.123047 C 26.531025 30.779286 27.374686 31.098103 28.158203 31.0625 C 28.94172 31.028484 29.640611 30.676314 30.15625 30.162109 C 30.671889 29.647905 31.023701 28.949512 31.060547 28.166016 C 31.097397 27.382482 30.779188 26.538938 30.123047 25.882812 L 25.054688 20.814453 C 26.282148 18.830898 27.003906 16.50315 27.003906 14.003906 C 27.003906 6.8360705 21.171763 1.0039062 14.003906 1.0039062 z M 14.003906 2.9960938 C 20.090883 2.9960938 25.001953 7.9169397 25.001953 14.003906 C 25.001953 20.090873 20.090883 25.001953 14.003906 25.001953 C 7.9169299 25.001953 2.9960937 20.090873 2.9960938 14.003906 C 2.9960938 7.9169397 7.9169299 2.9960937 14.003906 2.9960938 z M 13.908203 4.9960938 A 1.0001 1.0001 0 0 0 14.003906 6.9902344 C 17.588128 6.9915572 21.010646 10.419289 21.009766 14.003906 A 1.0001 1.0001 0 1 0 23.001953 14.003906 C 23.003132 9.2062877 18.801896 4.99787 14.003906 4.9960938 A 1.0001 1.0001 0 0 0 13.908203 4.9960938 z M 23.863281 22.451172 L 28.708984 27.296875 C 29.020353 27.608308 29.073328 27.842092 29.0625 28.072266 C 29.051691 28.302439 28.93704 28.553716 28.744141 28.746094 C 28.551241 28.938472 28.299937 29.054248 28.068359 29.064453 C 27.836784 29.075792 27.600378 29.020417 27.289062 28.708984 L 22.449219 23.867188 C 22.956374 23.432373 23.428213 22.958092 23.863281 22.451172 z " transform="matrix(0.26458333,0,0,0.26458333,0,288.53333)"/></g><text x="0" y="23.4666669" fill="#000000" font-size="5px" font-weight="bold" font-family="'Helvetica Neue', Helvetica, Arial-Unicode, Arial, Sans-serif">Created by Gajah Mada Studio</text><text x="0" y="28.4666669" fill="#000000" font-size="5px" font-weight="bold" font-family="'Helvetica Neue', Helvetica, Arial-Unicode, Arial, Sans-serif">from the Noun Project</text></svg>